Patient4_TMGait_0pt7_01_right_28_EMG.mot
version=1
nRows=40
nColumns=33
inDegrees=no
endheader
time	1LAddLong	2LGlutMax	3LGlutMed	4LIliopsoas	5LSemiMemb	6LBicFemLong	7LRecFem	8LVastMed	9LVastLat	10LGasMed	11LTibAnt	12lTibPost	13LPeroneusLong	14LSol	15LExtDigLong	16LFlexDigLong	17RAddLong	18RGlutMax	19RGlutMed	20RIliopsoas	21RSemiMemb	22RBicFemLong	23RRecFem	24RVastMed	25RVastLat	26RGasMed	27RTibAnt	28RTibPost	29RPeroneusLong	30RSol	31RExtDigLong	32RFlexDigLong
32.107	-0.012512	-0.57312	0.10101	-0.008087	0.029144	-0.028992	0.35111	0.00061	0.027466	-0.074768	-0.13748	-0.00412	-0.079346	0.059509	-0.34515	0.007935	0.047455	-1.0097	-0.068817	0.10605	-0.013123	-0.45746	0.40756	-0.12604	0.046234	-0.007782	0.27649	-0.02121	-0.6395	-0.23392	-0.003662	0.021362
32.108	-0.015717	-0.62561	0.11749	0.003815	0.02594	0.002441	0.36438	-0.005646	0.002594	-0.056305	-0.081787	-0.002594	-0.12329	-0.06073	-0.26566	0.00824	0.037384	-1.1345	-0.72678	-0.002747	0.001831	-0.26154	0.57053	-0.24704	0.004425	0.002747	0.31601	-0.022125	-0.76721	-0.24872	-0.00473	0.014038
32.109	-0.017395	-0.6694	0.086212	0.005188	0.031128	-0.009003	0.36224	-0.007019	-0.008545	-0.057526	-0.094452	-0.001984	-0.1091	-0.095367	0.05188	0.028839	0.031433	-1.2743	-0.45639	-0.054626	0.16266	-0.029602	0.61279	-0.21072	-0.019226	0.002594	-0.43152	-0.021667	-0.37033	-0.099792	-0.003052	0.010986
32.11	-0.007019	-0.69107	0.062714	0.014343	0.034637	-0.005188	0.40115	-0.007324	-0.007477	-0.049744	-0.025177	0.001221	-0.13336	-0.11871	0.25482	0.03006	-0.048218	-1.2793	-0.029449	-0.014191	0.22156	0.03952	0.58044	-0.10574	-0.032959	-0.007019	-0.83878	-0.023956	1.2698	0.013123	-0.003815	0.002441
32.111	-0.001831	-0.69	0.04425	0.029602	0.032806	0.001984	0.37949	-0.007019	0.012207	-0.050659	0.11856	0.004883	-0.14267	-0.057068	0.32638	0.027924	-0.11078	-1.2869	0.30579	0.053253	0.29709	-0.11093	0.52673	0.071716	-0.0354	-0.000763	-0.66116	-0.024109	1.1003	-0.034332	-0.003967	0.007477
32.112	-0.00946	-0.68634	0.1265	0.043945	0.019379	0.013885	0.37308	-0.006256	-0.005646	-0.082092	0.12665	-0.00412	-0.1088	0.013885	0.33844	0.024414	-0.11185	-1.183	-0.020294	-0.038452	0.30456	-0.15381	0.4953	0.12466	0.19882	0.002289	-0.18372	-0.026245	0.17563	0.12314	-0.003815	0.00351
32.113	-0.015869	-0.67001	0.18707	0.049286	0.021973	0.029449	0.38559	-0.016327	-0.008698	-0.11902	-0.10544	-0.001373	-0.045166	0.053864	-0.14648	0.032043	-0.15732	-1.1374	0.028534	-0.10941	0.06897	-0.041809	0.30029	0.1149	0.26032	-0.011749	0.21637	-0.020599	0.26032	0.073547	-0.003052	0.011444
32.114	-0.018463	-0.6691	0.1207	0.040741	0.032654	0.027313	0.34409	-0.011444	-0.004883	-0.11459	-0.11459	0.010681	-0.067596	-0.039978	-0.018311	0.031433	-0.14435	-1.2784	-0.72845	-0.066071	-0.023956	-0.18768	0.075378	0.17136	0.21591	-0.010986	0.29739	-0.021973	0.103	0.045013	-0.001831	0.007172
32.115	-0.014648	-0.63446	0.112	0.045929	0.027008	0.01709	0.33554	-0.014648	0.004883	-0.083618	-0.02243	0.004883	-0.1648	-0.12024	0.092468	0.021362	-0.10483	-1.362	-1.0995	-0.13412	0.17609	-0.67413	0.083008	0.26016	0.11124	-0.009918	0.15656	-0.019226	-0.15747	0.002441	-0.005188	0.005493
32.116	-0.013733	-0.63995	0.11963	0.031281	0.02182	0.011597	0.31097	-0.009003	-0.005493	-0.066528	-0.011902	-0.000458	-0.17716	-0.11231	-0.050201	0.021667	-0.070801	-1.3838	-0.70709	-0.1088	0.20966	-0.84351	0.14755	0.22873	-0.047455	-0.016174	0.16434	-0.022278	-0.23697	-0.009918	0.000305	-0.001068
32.117	-0.007782	-0.63492	0.10468	0.030975	0.02182	0.014801	0.31296	-0.00824	-0.031128	-0.050354	0.032654	0.007324	-0.18982	-0.12543	-0.2092	0.014801	-0.057373	-1.4339	-0.94772	0.12299	0.11108	-0.80826	0.25604	0.21454	-0.18036	-0.014343	0.14496	-0.019836	-0.10895	-0.034943	-0.003967	0.004425
32.118	0.002747	-0.57861	0.11795	-0.000153	0.025177	0.001526	0.33676	0.002136	-0.043945	-0.00351	0.010681	0.004272	-0.18326	-0.13534	-0.050659	0.026703	-0.070953	-1.4771	-1.0808	0.14755	-0.14313	-0.61783	0.29343	0.02121	-0.23392	-0.013428	0.090179	-0.020142	-0.079498	0.029449	-0.005341	0.003204
32.119	-0.001678	-0.62515	0.17746	-0.016937	0.039673	0.002899	0.30014	0.006409	-0.057983	-0.030823	-0.086975	-0.002289	-0.11398	-0.11902	0.049438	0.020142	-0.08194	-1.671	-1.2906	0.066528	-0.069122	-0.44449	0.18646	0.15198	-0.35599	-0.015869	0.099945	-0.016327	-0.12909	0.13855	-0.004272	-0.00412
32.12	-0.002136	-0.49789	0.24216	-0.016327	0.033875	0.003815	0.38376	0.011292	-0.060883	-0.040436	-0.11887	0.001984	-0.12863	-0.10819	0.27741	0.019379	-0.047913	-1.7375	-1.2473	-0.00412	0.11658	-0.42313	0.14145	0.30777	-0.31006	-0.012054	0.15289	-0.016174	-0.13702	0.15396	-0.006409	-0.008545
32.121	-0.000153	-0.37552	0.18433	-0.023041	0.006256	0.006409	0.50323	0.015106	-0.078583	0.00351	0.098724	-0.015259	-0.15717	-0.068207	0.45105	0.023193	-0.021057	-1.8922	-1.1134	0.015106	0.069427	-0.2832	0.23804	0.30136	0.13702	-0.024261	0.14847	-0.017548	-0.058594	-0.006409	-0.004883	-0.013428
32.122	-0.006714	-0.31326	0.10086	0	0.023804	0.000763	0.54535	0.013885	-0.098419	-0.03891	0.15442	-0.003204	-0.10452	0.027466	0.30533	0.016632	-0.004883	-2.0686	-1.1238	0.042267	-0.058746	-0.057526	0.089874	0.38727	0.5484	-0.02182	0.12344	-0.016327	-0.066376	-0.24612	-0.002747	-0.018768
32.123	-0.010681	-0.19165	0.093689	0.00824	0.044403	0.007935	0.56808	0.014343	-0.10742	-0.022278	0.15533	0.002136	-0.10971	0.072784	0.59235	-0.001526	-0.004883	-2.012	-0.90057	0.050964	0.050659	0.23819	0.020447	0.86578	0.50827	-0.022278	0.14358	-0.020599	-0.1152	-0.37277	-0.006104	-0.021057
32.124	-0.019073	-0.084534	0.10101	-0.001678	0.016632	-0.022125	0.62576	0.015106	-0.12039	-0.00885	-0.062408	0.010529	-0.06958	0.11108	-0.40832	-0.009613	-0.002594	-1.9463	-0.36163	-0.005035	0.097351	0.82153	0.15213	0.70862	0.21683	-0.018921	0.14847	-0.019073	-0.15778	-0.3949	-0.006714	-0.015564
32.125	-0.015259	0.053253	0.14648	-0.002136	0.042725	-0.022278	0.82748	0.010681	-0.1294	-0.024719	-0.10544	0.010223	-0.074158	0.09552	-0.75256	-0.027161	0.007172	-1.8845	-0.52856	-0.003052	0.11429	0.38849	0.37506	0.29892	-0.19806	-0.00351	0.10223	-0.013733	-0.10864	-0.40192	-0.007019	-0.010986
32.126	-0.019989	0.15274	0.18295	-0.015564	0.030212	-0.023956	0.96649	0.012512	-0.13534	-0.013733	0.024567	0.009308	-0.078735	0.067139	-0.504	-0.019989	0.002289	-1.792	-0.40771	-0.048828	0.14282	0.017853	0.61935	-0.018311	-0.57907	-0.006714	0.063324	-0.010834	-0.15427	0.10544	-0.003662	-0.017242
32.127	-0.023956	0.25818	0.18478	-0.020752	0.026703	-0.029602	1.0014	0.016937	-0.15915	0.029755	0.092316	0.015869	-0.12329	-0.032806	-0.13123	-0.013885	-0.003052	-1.7047	-0.27496	-0.13275	0.069733	-0.045929	0.73944	-0.26184	-0.73669	-0.009308	0.066681	-0.011749	-0.13763	0.30716	0.003204	-0.015717
32.128	-0.027618	0.30487	0.18005	-0.016327	0.029449	-0.038757	0.78201	0.020142	-0.16739	0.063019	0.13992	0.009003	-0.16815	-0.13779	0.27542	-0.016327	-0.022888	-1.5123	0.18768	-0.33264	0.061035	-0.052185	0.68085	-0.50171	-0.62286	-0.009613	0.19989	-0.012817	-0.045319	0.14664	-0.00351	-0.01358
32.129	-0.027771	0.35263	0.18402	-0.029907	0.032196	-0.053711	0.62241	0.013123	-0.14404	0.065155	0.094147	0.012207	-0.15243	-0.13275	0.15717	-0.013123	0.002441	-1.3846	-0.53009	-0.37079	0.047302	-0.16037	0.23148	-0.58029	-0.33478	-0.014343	0.37964	-0.012207	0.016327	0.16953	-0.003967	-0.006866
32.13	-0.030975	0.42893	0.20737	-0.018005	0.027161	-0.029297	0.57388	0.010681	-0.095062	0.02594	-0.19577	0.011292	-0.090027	-0.019531	-0.24002	-0.009308	-0.018921	-1.2808	-0.75546	-0.3363	0.048523	-0.14832	-0.11841	-0.30716	-0.22553	-0.0177	0.51758	-0.02121	0.066833	0.25635	-0.003204	-0.010681
32.131	-0.017242	0.49118	0.18997	-0.029755	0.029144	-0.030212	0.45334	0.011139	-0.039368	0.015869	-0.10819	0.011139	-0.086212	0.027771	-0.13825	-0.011292	-0.038452	-1.1031	-0.46249	-0.24002	0.056	-0.13001	-0.33386	-0.044556	-0.068359	-0.012665	0.5835	-0.002747	0.013733	0.087433	-0.003815	-0.008545
32.132	-0.018768	0.54672	0.1532	-0.014648	0.02655	-0.031433	0.095215	0.001678	-0.021515	0.02594	0.081177	0.00351	-0.14877	0.10651	0.2243	-0.027161	-0.003815	-0.98038	0.41901	0.022278	0.05722	-0.16708	-0.20493	0.005341	0.26154	-0.014343	0.6929	-0.001831	-0.10941	0.27832	-0.004578	-0.006866
32.133	-0.007019	0.60989	0.12955	-0.027161	0.021362	-0.043335	-0.084534	0.009003	-0.032959	-0.002899	0.089722	0.008698	-0.1268	0.1796	0.10147	-0.015717	0.009766	-0.90378	0.34073	0.22629	0.029755	-0.20081	-0.23712	-0.09552	0.42404	-0.005341	0.15274	0.000916	-0.043793	0.39185	-0.002136	-0.008087
32.134	-0.006714	0.62729	0.11734	-0.039673	0.030518	-0.052643	-0.17319	0.016785	-0.031128	0.023193	-0.10071	-0.002289	-0.077209	0.091095	-0.037689	-0.003662	0.0354	-0.78796	0.50629	0.022125	0.009308	-0.28244	-0.19974	0.026093	0.29663	0.010071	-0.74143	0.00473	-0.036469	0.3479	-0.001068	-0.012817
32.135	-0.00351	0.77377	0.086975	-0.037384	0.030518	-0.074158	-0.13657	-0.005188	-0.001068	0.085907	-0.003967	0.000458	-0.095673	0.036774	-0.068817	-0.007477	0.039673	-0.68802	0.1358	-0.036316	-0.032806	-0.31616	-0.062103	0.012512	0.23224	0.023041	-0.51773	-0.00061	0.08255	0.30395	0.000458	-0.012207
32.136	0.002441	0.8844	0.061646	-0.014191	0.021973	-0.088806	-0.056915	-0.003662	0.016937	0.065308	0.23285	0.000305	-0.12161	0.094604	-0.11673	-0.017548	0.068665	-0.62866	0.15961	0.05661	-0.1178	-0.26047	0.12238	0.091858	0.10101	0.009308	-0.20477	-0.00061	0.10529	0.08316	-0.005493	-0.013428
32.137	0.001678	0.9436	0.068207	0.04303	0.044556	-0.085602	-0.071106	0.000458	0.01709	0.048676	0.18402	0.009613	-0.097046	0.042267	-0.049744	-0.010223	0.079346	-0.5217	-0.006561	0.094299	-0.17014	-0.20905	0.17487	0.1149	0.023651	-0.00351	-0.12299	-0.004578	-0.1033	-0.12024	-0.001068	-0.018005
32.138	0.018768	1.0957	0.079346	0.06424	0.03006	-0.066986	-0.11841	-0.003357	0.036926	0.031891	-0.028076	0.007935	-0.072174	-0.036011	0.010986	-0.003052	0.054932	-0.24918	0.10651	0.15091	-0.056152	-0.2507	0.25223	0.04364	-0.000763	-0.003815	-0.098877	0.000763	-0.11612	-0.27313	-0.003967	-0.011139
32.139	0.004272	1.1957	0.062714	0.023499	0.033417	-0.083466	-0.095367	-0.018616	0.06134	0.008698	-0.11719	0.006256	-0.043182	0.075989	-0.047455	-0.011902	0.013733	0.055542	0.21683	0.18341	0.020142	-0.22003	0.22446	-0.072937	-0.032654	0.003052	-0.23651	0.001221	0.040131	-0.33951	-0.009613	-0.011902
32.14	0.000305	1.2521	0.071259	0.019073	0.035095	-0.086823	-0.038147	-0.011139	0.064087	0.013123	0.001831	0.009766	-0.072327	0.11917	0.001373	0.003204	0.0177	0.15213	0.82977	0.05127	-0.003662	-0.17609	0.17716	-0.1738	-0.10269	0.011139	0.14038	0.007477	0.053558	-0.20004	-0.00412	-0.01358
32.141	-0.004272	1.2572	0.089417	0.020447	0.028992	-0.069275	-0.032501	-0.006714	0.073853	0.023193	-0.11566	0.006256	-0.11108	0.034485	0.14435	0.001068	0.013428	0.16281	0.71259	0.047455	-0.11688	-0.15732	0.049438	-0.064545	-0.063629	0.020905	0.037842	-0.003662	0.076752	-0.16388	-0.002289	-0.015259
32.142	0.002136	1.2585	0.10239	-0.007935	0.036621	-0.075836	0.029907	0.001984	0.049591	0.061646	-0.28931	0.006256	-0.063934	-0.041809	0.60684	-0.002136	-0.012207	0.27039	0.62424	0.06073	0.065308	-0.17838	0.028992	0.078888	0.072632	0.017853	-0.015411	-0.000763	0.027618	-0.2887	-0.002441	-0.013885
32.143	0.004425	1.2541	0.044708	-0.002136	0.020142	-0.073853	0.08194	-0.00061	0.027924	0.095978	-0.084686	-0.003204	-0.11459	-0.01709	-0.059204	-0.007477	-0.017548	0.15884	0.28809	0.092926	0.16113	-0.36545	0.11414	-0.03952	0.099487	0.013733	-0.7132	-0.006866	0.1889	-0.37506	-0.005188	-0.01709
32.144	-0.008087	1.2532	0.020752	0.005646	0.02655	-0.097809	0.18677	-0.000153	0.009003	0.071716	0.10025	0.006561	-0.097809	0.044403	-0.39169	-0.003662	-0.006714	0.13321	-0.17242	0.087738	0.016022	-0.50156	0.13886	-0.027008	0.057678	0.033722	-0.60349	-0.009613	0.23361	-0.49606	-0.003204	-0.002899
32.145	-0.006104	1.2552	0.011444	0.026093	0.027313	-0.090027	0.24323	0.000305	-0.011444	0.065155	0.036774	0.019836	-0.053711	0.12268	-0.16083	0.001678	0.003967	0.11261	-0.31799	0.03891	0.001373	-0.53833	0.13168	0.054626	0.053101	0.023041	-0.11643	-0.014801	-0.018616	-0.42038	-0.007935	-0.014954
32.146	-0.005035	1.2549	-0.00824	0.039825	0.028381	-0.072174	0.37537	0.005951	-0.014648	0.063324	0.008698	0.00885	-0.097809	0.15198	-0.20233	-0.006866	0.018463	0.057831	-0.66284	0.000763	-0.10284	-0.46845	0.19562	0.032043	0.045776	0.003204	0.096436	-0.001984	-0.11597	-0.41107	-0.001526	-0.009003
